<?xml version="1.0" standalone="no"?>
<!DOCTYPE svg PUBLIC "-//W3C//DTD SVG 20010904//EN"
 "http://www.w3.org/TR/2001/REC-SVG-20010904/DTD/svg10.dtd">
<svg version="1.0" xmlns="http://www.w3.org/2000/svg"
 width="300.000000pt" height="212.000000pt" viewBox="0 0 300.000000 212.000000"
 preserveAspectRatio="xMidYMid meet">
<metadata>
Created by potrace 1.16, written by Peter Selinger 2001-2019
</metadata>
<g transform="translate(0.000000,212.000000) scale(0.100000,-0.100000)"
fill="#000000" stroke="none">
<path d="M368 1617 c-100 -28 -128 -70 -128 -192 0 -101 17 -140 72 -165 55
-25 120 -25 318 0 85 10 208 22 273 26 97 6 117 10 115 22 -9 47 -147 72 -395
72 -140 0 -155 2 -173 20 -31 31 -25 57 17 79 23 12 257 16 313 4 24 -4 36
-14 44 -35 l10 -28 93 0 93 0 0 45 c0 73 -22 112 -77 138 -45 21 -64 22 -288
24 -172 2 -253 -1 -287 -10z"/>
<path d="M1100 1458 l0 -161 137 6 c75 4 179 7 232 7 l96 0 145 131 c80 71
156 141 170 155 l25 24 -132 0 -132 0 -126 -120 c-122 -117 -126 -120 -170
-120 l-45 0 0 120 0 120 -100 0 -100 0 0 -162z"/>
<path d="M2072 1568 c-64 -116 -144 -269 -141 -273 2 -1 48 -6 101 -10 l97 -7
48 96 c26 53 50 96 53 96 3 0 30 -48 60 -106 30 -58 58 -108 62 -110 10 -6
221 -44 225 -40 2 1 -46 92 -106 202 l-109 199 -130 3 -130 3 -30 -53z"/>
<path d="M424 1157 c4 -14 1 -16 -22 -12 -15 2 -56 6 -92 7 -62 3 -65 2 -68
-21 -2 -13 4 -44 13 -68 15 -37 25 -49 64 -67 43 -20 61 -21 321 -21 273 0
275 0 325 25 52 26 68 49 79 112 l7 37 -91 3 c-49 2 -90 -1 -90 -5 0 -5 -4 -6
-9 -2 -5 3 -16 -3 -23 -14 -12 -18 -28 -19 -184 -21 -160 -1 -232 9 -219 29 2
4 -1 13 -7 21 -8 12 -9 12 -4 -3z"/>
<path d="M1884 1155 c-5 -12 -9 -13 -14 -4 -6 8 -15 1 -31 -24 l-24 -35 -47
35 c-27 19 -48 31 -48 26 0 -4 -30 -7 -67 -6 -38 1 -68 2 -68 4 0 1 -10 3 -22
4 -13 1 -20 -2 -16 -7 3 -6 -3 -8 -15 -4 -45 15 -27 -15 55 -87 l86 -77 148 0
149 0 29 59 30 59 200 1 c188 0 201 -1 211 -19 14 -27 15 -26 -37 -39 -62 -16
-99 -36 -155 -82 l-47 -39 -985 0 -986 0 0 -105 0 -105 683 -2 c952 -3 1098
-4 1128 -6 24 -2 27 -7 32 -56 7 -74 48 -155 106 -209 58 -54 119 -70 256 -68
107 1 173 19 239 62 165 110 197 353 65 503 -22 25 -39 47 -37 49 2 2 -17 41
-42 86 -37 66 -48 80 -64 75 -11 -4 -16 -2 -12 4 6 9 -28 8 -96 -3 -17 -3 -28
0 -28 7 0 9 -3 9 -12 0 -15 -15 -31 -16 -22 0 4 6 3 8 -3 5 -14 -9 -79 -9
-236 -3 -107 4 -136 3 -131 -7 5 -8 3 -8 -9 1 -9 8 -21 11 -27 7 -18 -11 -100
-7 -115 5 -12 10 -16 9 -21 -5z m736 -180 c0 -8 4 -15 10 -15 5 0 7 -8 3 -17
-3 -10 -3 -15 2 -11 4 4 13 3 20 -2 8 -7 12 -5 12 5 0 8 -5 11 -11 8 -6 -3 -5
0 2 8 10 11 16 9 35 -11 18 -20 19 -21 2 -10 -20 14 -20 14 -2 -7 12 -13 16
-27 11 -35 -6 -10 -4 -10 9 1 15 12 19 10 36 -10 11 -13 17 -28 14 -33 -3 -4
-9 -2 -14 5 -5 8 -7 0 -6 -22 1 -25 6 -35 15 -32 6 3 12 0 12 -7 0 -6 4 -9 9
-6 12 8 0 -48 -13 -56 -6 -4 -16 5 -22 20 -12 26 -12 26 -7 -9 4 -29 1 -37
-19 -47 -22 -11 -22 -11 6 -5 26 5 27 4 17 -15 -6 -12 -20 -26 -31 -32 -17 -9
-19 -6 -23 27 l-4 38 -1 -42 c-2 -36 -5 -43 -23 -43 -11 0 -17 -4 -14 -10 4
-6 -5 -9 -20 -8 -22 2 -26 7 -22 25 2 12 0 20 -4 17 -5 -3 -9 -15 -9 -27 0
-12 -4 -17 -8 -12 -7 10 -18 14 -52 20 -10 1 -14 13 -13 36 l2 34 -10 -27
c-13 -33 -20 -35 -44 -8 -10 11 -22 17 -28 13 -6 -3 -7 -1 -3 6 4 6 11 9 16 6
5 -3 11 -1 14 4 3 5 -1 11 -9 15 -8 3 -15 13 -15 23 0 14 -2 15 -9 4 -7 -11
-11 -9 -20 8 -7 11 -8 21 -4 21 4 0 2 5 -4 11 -13 13 4 62 18 53 5 -3 6 2 3
10 -3 8 4 24 15 35 21 21 29 47 11 36 -12 -7 -12 -3 -4 19 3 9 14 16 23 16 14
0 14 2 1 10 -9 6 -10 10 -3 10 6 0 15 -4 18 -10 3 -5 14 -10 23 -10 14 0 14 2
3 9 -22 14 -1 33 34 29 19 -1 37 1 41 5 13 12 34 8 34 -8z"/>
<path d="M1290 1153 c0 -5 -40 -6 -90 -5 l-90 4 0 -70 c0 -39 -3 -77 -6 -86
-5 -14 7 -16 95 -16 l101 0 0 90 c0 50 -2 90 -5 90 -3 0 -5 -3 -5 -7z"/>
</g>
</svg>
